<svg width="100%" height="100%" id="svg" viewBox="0 0 1440 400" xmlns="http://www.w3.org/2000/svg" class="transition duration-300 ease-in-out delay-150"><defs><linearGradient id="gradient" x1="0%" y1="50%" x2="100%" y2="50%"><stop offset="5%" stop-color="#0064d9ff"></stop><stop offset="95%" stop-color="#7d83ffff"></stop></linearGradient></defs><path d="M 0,400 C 0,400 0,200 0,200 C 79.26859351988219,178.38751840942564 158.53718703976438,156.77503681885125 207,162 C 255.46281296023562,167.22496318114875 273.11984536082474,199.28737113402062 328,203 C 382.88015463917526,206.71262886597938 474.98343151693666,182.07547864506626 543,175 C 611.0165684830633,167.92452135493374 654.9464285714286,178.4107142857143 711,171 C 767.0535714285714,163.5892857142857 835.2308541973491,138.28166421207655 902,142 C 968.7691458026509,145.71833578792345 1034.1301546391753,178.4626288659794 1088,174 C 1141.8698453608247,169.5373711340206 1184.2485272459498,127.86782032400589 1241,126 C 1297.7514727540502,124.13217967599411 1368.875736377025,162.06608983799705 1440,200 C 1440,200 1440,400 1440,400 Z" stroke="none" stroke-width="0" fill="url(#gradient)" class="transition-all duration-300 ease-in-out delay-150 path-0" transform="rotate(-180 720 200)"></path></svg>
