<svg width="100%" height="100%" id="svg" viewBox="0 0 1440 400" xmlns="http://www.w3.org/2000/svg" class="transition duration-300 ease-in-out delay-150"><defs><linearGradient id="gradient" x1="0%" y1="50%" x2="100%" y2="50%"><stop offset="5%" stop-color="#7d83ffff"></stop><stop offset="95%" stop-color="#0064d9ff"></stop></linearGradient></defs><path d="M 0,400 C 0,400 0,200 0,200 C 56.28589837997053,218.5189617083947 112.57179675994107,237.0379234167894 179,212 C 245.42820324005893,186.9620765832106 321.9987113402062,118.36726804123708 375,135 C 428.0012886597938,151.63273195876292 457.4333578792341,253.49300441826216 513,261 C 568.5666421207659,268.50699558173784 650.2678571428572,181.6607142857143 718,177 C 785.7321428571428,172.3392857142857 839.4952135493373,249.86413843888073 899,260 C 958.5047864506627,270.13586156111927 1023.7512886597935,212.88273195876292 1088,206 C 1152.2487113402065,199.11726804123708 1215.4996318114877,242.6049337260677 1274,250 C 1332.5003681885123,257.3950662739323 1386.2501840942562,228.69753313696614 1440,200 C 1440,200 1440,400 1440,400 Z" stroke="none" stroke-width="0" fill="url(#gradient)" class="transition-all duration-300 ease-in-out delay-150 path-0"></path></svg>
